<?xml version="1.0" encoding="UTF-8" standalone="no"?>
<!DOCTYPE svg PUBLIC "-//W3C//DTD SVG 1.1//EN" "http://www.w3.org/Graphics/SVG/1.1/DTD/svg11.dtd">
<svg width="100%" height="100%" viewBox="0 0 1025 1025" version="1.1" xmlns="http://www.w3.org/2000/svg" xmlns:xlink="http://www.w3.org/1999/xlink" xml:space="preserve" xmlns:serif="http://www.serif.com/" style="fill-rule:evenodd;clip-rule:evenodd;">
    <g transform="matrix(1,0,0,1,-1635,-2703)">
        <g id="bot" transform="matrix(1,0,0,1,1635.76,2703.5)">
            <rect x="0" y="0" width="1024" height="1024" style="fill:none;"/>
            <clipPath id="_clip1">
                <rect x="0" y="0" width="1024" height="1024"/>
            </clipPath>
            <g clip-path="url(#_clip1)">
                <g id="circle">
                    <g transform="matrix(0.207214,-2.01917e-17,2.2003e-17,0.207214,85.7247,103.56)">
                        <g id="solid">
                            <g id="g702">
                                <path id="path21" d="M1016.58,2097.5C942.652,2079.77 793.666,2033.76 632.987,1932.3C807.621,1832.72 962.265,1815.75 1018.84,1811.6C1027.89,1745.97 1043.36,1685.24 1060.71,1624.14C1004.51,1580.01 895.882,1492.13 796.683,1360.49C957.739,1348.04 1096.54,1370.67 1165.94,1384.25C1201.02,1323.15 1241.38,1261.29 1293.81,1204.71C1263.63,1152.29 1211.2,1051.96 1177.26,907.497C1307.39,964.828 1398.66,1028.57 1446.19,1067.8C1511.82,1019.9 1583.86,985.196 1653.64,950.495C1653.64,889.392 1656.28,782.65 1683.06,651.768C1773.96,748.326 1829.78,836.587 1851.28,884.866C1938.41,867.893 2030.06,863.366 2125.87,868.27C2143.6,820.368 2178.67,737.388 2240.15,637.058C2283.15,750.967 2300.12,842.999 2308.42,890.901C2403.85,913.154 2498.14,942.574 2584.9,986.705C2724.83,869.401 2852.7,819.236 3005.08,780.387C3005.83,588.025 2971.88,393.399 2872.68,204.809C2772.73,156.153 2673.53,127.11 2564.91,100.33C2451.38,161.056 2359.72,230.457 2281.27,304.385C2225.07,216.502 2151.52,124.47 2060.62,41.113C2017.24,41.113 1934.64,36.209 1773.58,61.48C1694.75,161.81 1637.8,262.141 1593.67,362.471C1498.24,300.613 1380.94,247.808 1246.28,211.976C1167.83,246.676 1093.52,285.526 1019.6,328.902C992.817,455.634 983.765,573.692 987.537,683.074C874.382,660.82 744.255,651.391 604.698,667.987C556.419,720.038 508.14,774.729 464.01,835.832C471.931,993.117 510.78,1131.16 566.98,1249.22C436.476,1279.02 301.068,1335.22 174.712,1422.35C156.985,1478.92 148.687,1538.14 135.486,1595.1C213.185,1730.88 312.006,1848.56 411.959,1932.3C311.629,2014.9 216.202,2121.64 124.17,2274.02C132.468,2339.65 141.143,2401.89 158.494,2463.37L160.757,2463.37C266.367,2245.36 389.328,2101.27 511.535,2005.85C758.588,2177.46 1009.79,2226.87 1044.87,2231.4C1041.85,2219.71 1023.75,2159.36 1019.97,2106.93L1017.33,2097.12L1016.58,2097.5ZM2681.45,250.071C2767.83,381.707 2797.63,543.517 2805.92,635.549C2727.47,665.724 2605.26,721.924 2487.58,817.728C2470.61,734.748 2440.81,612.164 2376.32,471.853C2455.15,393.399 2555.48,315.323 2681.83,250.448L2681.45,250.071ZM1920.68,158.793C2024.78,246.676 2102.48,351.91 2158.68,448.468C2066.65,566.148 2009.7,679.302 1978.77,758.133C1935.77,679.302 1857.69,574.069 1740.77,468.458C1780.37,368.128 1837.33,259.123 1920.68,158.793ZM1175.75,369.637C1327.75,400.943 1445.06,458.274 1544.63,528.807C1500.5,681.565 1491.07,816.973 1490.7,904.479C1412.62,847.148 1299.84,776.615 1152.37,727.959C1139.92,623.102 1144.82,500.519 1175.75,369.637ZM1012.43,849.788C1042.23,1020.27 1100.31,1150.02 1143.31,1233.38C1043.36,1215.28 888.715,1203.21 718.984,1224.33C662.784,1114.57 620.163,979.161 612.242,826.026C760.097,809.43 895.127,823.008 1012.43,849.788ZM247.885,1545.69C374.618,1454.41 513.798,1406.88 640.153,1381.24C730.677,1526.07 843.454,1631.31 921.53,1697.31C821.577,1714.29 673.345,1753.14 516.438,1852.71C421.011,1778.03 325.962,1676.94 248.263,1545.31L247.885,1545.69Z" style="fill:white;stroke:rgb(45,178,74);stroke-width:9.43px;"/>
                                <g id="g23">
                                    <path id="path25" d="M1851.66,884.866C1825.63,836.964 1773.2,740.783 1681.55,649.128C1651,780.01 1651,893.541 1655.52,950.495C1651,950.495 1738.5,906.742 1851.66,884.866Z" style="fill:rgb(67,176,42);stroke:rgb(67,176,42);stroke-width:9.43px;"/>
                                    <path id="path35" d="M1445.81,1068.18C1397.91,1028.95 1306.25,959.17 1171.22,902.216C1205.92,1046.3 1262.88,1151.15 1293.43,1203.58C1293.43,1212.26 1354.53,1137.95 1446.19,1068.18L1445.81,1068.18Z" style="fill:rgb(67,176,42);stroke:rgb(67,176,42);stroke-width:9.43px;"/>
                                    <path id="path37" d="M1978.77,757.379C2009.32,678.925 2065.9,565.394 2157.55,447.336C2100.97,347.006 2022.52,246.676 1917.66,159.17C1834.68,264.026 1778.11,368.883 1738.88,473.362C1856.56,573.692 1930.87,678.548 1978.77,757.002L1978.77,757.379Z" style="fill:rgb(67,176,42);stroke:rgb(67,176,42);stroke-width:9.43px;"/>
                                    <path id="path39" d="M1167.08,1382.74C1121.06,1374.45 1070.52,1367.28 1016.2,1363.13C936.24,1356.72 863.067,1356.72 798.569,1360.87C836.664,1409.52 883.058,1463.08 939.257,1517.02C981.502,1557.38 1022.61,1592.08 1061.46,1621.88C1074.66,1583.03 1090.51,1541.91 1109.74,1498.16C1128.23,1456.29 1147.84,1417.82 1166.7,1382.74L1167.08,1382.74Z" style="fill:rgb(67,176,42);stroke:rgb(67,176,42);stroke-width:9.43px;"/>
                                    <path id="path43" d="M517.192,1853.84C674.099,1753.51 822.331,1709.76 922.662,1696.56C844.208,1630.93 730.677,1526.45 639.022,1382.37C508.14,1408.39 374.618,1458.56 248.263,1545.69C322.567,1676.57 416.862,1779.54 516.815,1853.84L517.192,1853.84Z" style="fill:rgb(67,176,42);stroke:rgb(67,176,42);stroke-width:9.43px;"/>
                                    <path id="path45" d="M1018.47,1814.62C957.362,1819.14 808.753,1827.44 634.118,1932.3C795.552,2032.63 944.161,2085.43 1018.47,2102.78C1005.26,2006.6 1005.26,1906.27 1018.47,1814.62Z" style="fill:rgb(67,176,42);stroke:rgb(67,176,42);stroke-width:9.43px;"/>
                                    <path id="path47" d="M1546.52,528.807C1450.71,463.178 1328.51,406.601 1175.75,371.523C1145.2,502.405 1141.05,624.611 1149.72,729.467C1297.96,777.369 1411.49,847.148 1489.94,904.102C1489.94,816.973 1503.14,681.565 1546.52,528.807Z" style="fill:rgb(67,176,42);stroke:rgb(67,176,42);stroke-width:9.43px;"/>
                                    <path id="path49" d="M2880.61,209.335C2880.61,209.335 3002.81,584.63 3006.96,776.615C2858.73,811.693 2727.85,863.744 2584.14,986.327C2662.6,1025.55 2732.37,1073.46 2798,1130.41C2867.78,1191.51 2933.03,1217.54 3024.69,1174.16C3077.12,1139.09 3369.06,838.095 3399.61,798.869C3469.39,724.564 3452.03,602.357 3377.73,545.78C3194.42,375.672 2880.61,209.712 2880.61,209.712L2880.61,209.335Z" style="fill:rgb(67,176,42);stroke:rgb(67,176,42);stroke-width:9.43px;"/>
                                    <path id="path51" d="M173.958,1424.61C304.84,1337.48 435.721,1280.53 566.603,1249.98C510.026,1132.3 470.799,996.888 462.124,839.604C335.768,1018.39 236.99,1211.86 175.887,1417.04L173.958,1424.61Z" style="fill:rgb(67,176,42);stroke:rgb(67,176,42);stroke-width:9.43px;"/>
                                    <path id="path55" d="M1145.95,1234.13C1102.2,1151.15 1045.62,1015.75 1015.07,850.165C897.39,824.14 766.509,810.938 613.751,832.815C622.426,985.573 666.179,1116.45 722.756,1229.99C897.013,1203.96 1045.62,1216.79 1145.95,1234.51L1145.95,1234.13Z" style="fill:rgb(67,176,42);stroke:rgb(67,176,42);stroke-width:9.43px;"/>
                                    <path id="path59" d="M603.944,668.741C661.275,661.575 729.168,657.426 805.736,660.443C874.382,663.461 935.486,671.759 987.914,681.565C998.852,563.885 1009.79,446.205 1021.11,328.147C954.722,366.62 879.663,416.407 801.587,479.774C721.624,545.026 656.372,609.901 604.321,668.364L603.944,668.741Z" style="fill:rgb(67,176,42);stroke:rgb(67,176,42);stroke-width:9.43px;stroke-linecap:round;"/>
                                    <path id="path679" d="M1244.4,213.484C1327,237.624 1418.28,271.947 1512.95,320.604C1541.24,334.936 1568.02,350.024 1593.29,364.734C1611.77,319.095 1635.53,268.175 1666.09,214.616C1699.65,155.398 1735.11,104.856 1767.92,62.612C1686.83,76.19 1597.06,95.804 1500.88,123.715C1405.45,151.249 1319.83,182.178 1244.4,213.484Z" style="fill:rgb(67,176,42);fill-rule:nonzero;stroke:rgb(67,176,42);stroke-width:9.43px;"/>
                                    <path id="path71" d="M412.336,1932.3C312.006,1849.32 211.676,1740.31 133.222,1604.9C89.47,1827.44 89.47,2063.18 124.547,2281.57C207.527,2128.81 307.857,2019.8 412.336,1932.3Z" style="fill:rgb(67,176,42);stroke:rgb(67,176,42);stroke-width:9.43px;"/>
                                    <path id="path75" d="M3343.03,3058.56C3068.44,2796.79 3011.49,2626.31 2780.65,2805.47C2148.5,3302.97 1236.85,3006.13 1044.87,2233.66C1010.17,2229.14 765.754,2181.24 517.192,2011.13C394.986,2107.31 268.63,2255.54 163.774,2469.4L159.248,2469.4C556.042,3970.96 2487.96,4320.23 3381.88,3381.8C3530.11,3224.52 3395.08,3115.51 3342.65,3058.93L3343.03,3058.56Z" style="fill:rgb(67,176,42);stroke:rgb(67,176,42);stroke-width:9.43px;"/>
                                    <path id="path79" d="M2679.95,248.185C2553.59,309.288 2453.26,387.742 2374.81,470.721C2440.06,610.278 2470.61,737.011 2488.34,815.465C2610.55,719.283 2732.37,662.706 2806.68,632.155C2798,545.026 2767.45,383.216 2680.32,248.185L2679.95,248.185Z" style="fill:rgb(67,176,42);stroke:rgb(67,176,42);stroke-width:9.43px;"/>
                                    <path id="path83" d="M2239.78,631.778C2207.72,680.434 2175.66,738.897 2148.12,807.167C2139.82,828.289 2132.28,848.656 2125.87,868.27C2156.04,869.779 2188.48,872.796 2222.43,876.945C2253.36,880.717 2282.78,885.62 2309.93,891.278C2305.03,858.086 2298.62,821.877 2289.19,783.404C2274.85,726.073 2257.5,675.153 2239.4,631.778L2239.78,631.778Z" style="fill:rgb(67,176,42);stroke:rgb(67,176,42);stroke-width:9.43px;"/>
                                    <path id="path87" d="M2280.51,304.762C2319.74,267.798 2367.26,227.44 2423.09,187.836C2472.87,152.381 2520.4,123.715 2564.15,100.707C2491.73,83.357 2409.51,67.515 2318.61,56.577C2223.56,45.262 2136.43,41.49 2059.11,42.244C2150.38,125.601 2224.31,217.256 2280.51,304.762Z" style="fill:rgb(67,176,42);stroke:rgb(67,176,42);stroke-width:9.43px;"/>
                                </g>
                                <g id="use111">
                                    <path id="SVGID" d="M860.804,2452.43C1000.36,2822.82 1488.06,3314.66 2088.9,3314.66C2420.07,3314.66 2720.3,3196.98 2955.66,2996.7C2973.01,2988.03 3134.07,3170.96 3199.7,3240.74C3212.9,3258.09 3212.9,3262.61 3212.9,3262.61C2420.07,3955.12 1074.29,3855.16 438.362,2657.24C490.79,2482.98 564.717,2378.5 564.717,2378.5C734.448,2448.28 860.804,2452.43 860.804,2452.43Z" style="fill:white;fill-rule:nonzero;stroke:rgb(45,178,74);stroke-width:9.43px;"/>
                                </g>
                            </g>
                        </g>
                    </g>
                    <g transform="matrix(1.20819,0,0,1.01678,-72.9961,-33.9357)">
                        <ellipse cx="484.192" cy="536.926" rx="423.774" ry="503.55" style="fill:none;"/>
                    </g>
                </g>
                <g transform="matrix(1.23496,0,0,1.23496,13.2648,-105.335)">
                    <g transform="matrix(0.110923,0,0,0.932908,465.367,-110.986)">
                        <path d="M349.107,680.448L702.613,680.448L702.613,636.877C702.613,625.278 623.413,615.861 525.86,615.861C428.307,615.861 349.107,625.278 349.107,636.877L349.107,680.448Z" style="fill:rgb(189,189,189);"/>
                        <path d="M349.107,680.448L702.613,680.448L702.613,636.877C702.613,625.278 623.413,615.861 525.86,615.861C428.307,615.861 349.107,625.278 349.107,636.877L349.107,680.448ZM444.008,669.164L444.008,636.877C444.008,631.505 480.685,627.145 525.86,627.145C571.036,627.145 607.713,631.505 607.713,636.877C607.713,636.877 607.713,669.164 607.713,669.164L444.008,669.164Z" style="fill:rgb(71,71,71);"/>
                    </g>
                    <g transform="matrix(1,0,0,1,1,0)">
                        <path d="M662.133,575.459C662.133,552.472 643.47,533.81 620.484,533.81L426.911,533.81C403.924,533.81 385.261,552.472 385.261,575.459L385.261,750.015C385.261,773.002 403.924,791.664 426.911,791.664L620.484,791.664C643.47,791.664 662.133,773.002 662.133,750.015L662.133,575.459Z" style="fill:rgb(189,189,189);"/>
                        <path d="M662.133,575.459C662.133,552.472 643.47,533.81 620.484,533.81L426.911,533.81C403.924,533.81 385.261,552.472 385.261,575.459L385.261,750.015C385.261,773.002 403.924,791.664 426.911,791.664L620.484,791.664C643.47,791.664 662.133,773.002 662.133,750.015L662.133,575.459ZM651.606,575.459L651.606,750.015C651.606,767.192 637.661,781.138 620.484,781.138C620.484,781.138 426.911,781.138 426.911,781.138C409.734,781.138 395.788,767.192 395.788,750.015C395.788,750.015 395.788,575.459 395.788,575.459C395.788,558.282 409.734,544.336 426.911,544.336C426.911,544.336 620.484,544.336 620.484,544.336C637.661,544.336 651.606,558.282 651.606,575.459Z" style="fill:rgb(71,71,71);"/>
                    </g>
                    <g transform="matrix(1.01261,0,0,1.01909,-18.8582,-13.9821)">
                        <path d="M389.213,615.861L378.423,615.861C362.243,615.861 349.107,628.913 349.107,644.99L349.107,703.248C349.107,719.325 362.243,732.377 378.423,732.377L389.213,732.377L389.213,615.861Z" style="fill:rgb(189,189,189);"/>
                        <path d="M389.213,615.861L378.423,615.861C362.243,615.861 349.107,628.913 349.107,644.99L349.107,703.248C349.107,719.325 362.243,732.377 378.423,732.377L389.213,732.377L389.213,615.861ZM378.817,626.19L378.817,722.048C378.817,722.048 378.423,722.048 378.423,722.048C367.98,722.048 359.503,713.624 359.503,703.248L359.503,644.99C359.503,634.614 367.98,626.19 378.423,626.19L378.817,626.19Z" style="fill:rgb(71,71,71);"/>
                    </g>
                    <g transform="matrix(1.01261,0,0,1.01909,1.14177,-13.9821)">
                        <path d="M662.637,615.861L662.637,732.377L673.298,732.377C689.477,732.377 702.613,719.325 702.613,703.248L702.613,644.99C702.613,628.913 689.477,615.861 673.298,615.861L662.637,615.861Z" style="fill:rgb(189,189,189);"/>
                        <path d="M662.637,615.861L662.637,732.377L673.298,732.377C689.477,732.377 702.613,719.325 702.613,703.248L702.613,644.99C702.613,628.913 689.477,615.861 673.298,615.861L662.637,615.861ZM673.033,626.19L673.298,626.19C683.74,626.19 692.218,634.614 692.218,644.99C692.218,644.99 692.218,703.248 692.218,703.248C692.218,713.624 683.74,722.048 673.298,722.048L673.033,722.048L673.033,626.19Z" style="fill:rgb(71,71,71);"/>
                    </g>
                    <g transform="matrix(0.110923,0,0,0.932908,465.367,-110.986)">
                        <path d="M525.86,615.861C525.086,615.835 525.86,680.448 525.86,680.448L702.613,680.448L702.613,636.877C702.613,625.278 623.413,615.861 525.86,615.861Z" style="fill-opacity:0.2;"/>
                    </g>
                    <g transform="matrix(1,0,0,1,1,0)">
                        <path d="M662.133,575.459C662.133,552.472 643.47,533.81 620.484,533.81L522.697,533.81L522.697,791.664L620.484,791.664C643.47,791.664 662.133,773.002 662.133,750.015L662.133,575.459Z" style="fill-opacity:0.2;"/>
                    </g>
                    <g transform="matrix(1.01261,0,0,1.01909,1.14177,-13.9821)">
                        <path d="M662.637,615.861L662.637,732.377L673.298,732.377C689.477,732.377 702.613,719.325 702.613,703.248L702.613,644.99C702.613,628.913 689.477,615.861 673.298,615.861L662.637,615.861Z" style="fill-opacity:0.2;"/>
                    </g>
                    <g transform="matrix(1,0,0,1,128.294,244.136)">
                        <path d="M416.009,479.973C416.009,474.41 411.493,469.893 405.93,469.893L386.877,469.893C381.314,469.893 376.797,474.41 376.797,479.973C376.797,485.536 381.314,490.052 386.877,490.052L405.93,490.052C411.493,490.052 416.009,485.536 416.009,479.973ZM476.08,479.582C476.08,474.019 471.564,469.502 466.001,469.502L446.948,469.502C441.385,469.502 436.868,474.019 436.868,479.582C436.868,485.145 441.385,489.661 446.948,489.661L466.001,489.661C471.564,489.661 476.08,485.145 476.08,479.582ZM355.938,479.444C355.938,473.881 351.422,469.364 345.858,469.364L326.806,469.364C321.243,469.364 316.726,473.881 316.726,479.444C316.726,485.007 321.243,489.524 326.806,489.524L345.858,489.524C351.422,489.524 355.938,485.007 355.938,479.444ZM336.332,365.22C349.988,365.22 361.074,376.099 361.074,389.5C361.074,402.9 349.988,413.779 336.332,413.779C322.676,413.779 311.59,402.9 311.59,389.5C311.59,376.099 322.676,365.22 336.332,365.22ZM456.474,365.15C470.13,365.15 481.217,376.03 481.217,389.43C481.217,402.83 470.13,413.709 456.474,413.709C442.819,413.709 431.732,402.83 431.732,389.43C431.732,376.03 442.819,365.15 456.474,365.15Z" style="fill:white;"/>
                        <path d="M366.345,481.655C367.196,492.242 376.07,500.579 386.877,500.579C386.877,500.579 405.93,500.579 405.93,500.579C416.707,500.579 425.562,492.288 426.455,481.742C427.534,492.101 436.304,500.188 446.948,500.188C446.948,500.188 466.001,500.188 466.001,500.188C477.374,500.188 486.607,490.955 486.607,479.582C486.607,468.209 477.374,458.976 466.001,458.976L446.948,458.976C436.171,458.976 427.315,467.267 426.423,477.813C425.343,467.454 416.574,459.366 405.93,459.366L386.877,459.366C376.251,459.366 367.493,467.426 366.391,477.761C365.54,467.174 356.665,458.838 345.858,458.838C345.858,458.838 326.806,458.838 326.806,458.838C315.433,458.838 306.199,468.071 306.199,479.444C306.199,490.817 315.433,500.05 326.806,500.05L345.858,500.05C356.484,500.05 365.242,491.99 366.345,481.655ZM416.009,479.973C416.009,474.41 411.493,469.893 405.93,469.893L386.877,469.893C381.314,469.893 376.797,474.41 376.797,479.973C376.797,485.536 381.314,490.052 386.877,490.052L405.93,490.052C411.493,490.052 416.009,485.536 416.009,479.973ZM476.08,479.582C476.08,474.019 471.564,469.502 466.001,469.502L446.948,469.502C441.385,469.502 436.868,474.019 436.868,479.582C436.868,485.145 441.385,489.661 446.948,489.661L466.001,489.661C471.564,489.661 476.08,485.145 476.08,479.582ZM355.938,479.444C355.938,473.881 351.422,469.364 345.858,469.364L326.806,469.364C321.243,469.364 316.726,473.881 316.726,479.444C316.726,485.007 321.243,489.524 326.806,489.524L345.858,489.524C351.422,489.524 355.938,485.007 355.938,479.444ZM336.332,354.693C316.812,354.693 301.063,370.345 301.063,389.5C301.063,408.654 316.812,424.306 336.332,424.306C355.852,424.306 371.601,408.654 371.601,389.5C371.601,370.345 355.852,354.693 336.332,354.693ZM456.474,354.624C436.954,354.624 421.205,370.275 421.205,389.43C421.205,408.585 436.954,424.236 456.474,424.236C475.994,424.236 491.743,408.585 491.743,389.43C491.743,370.275 475.994,354.624 456.474,354.624ZM336.332,365.22C349.988,365.22 361.074,376.099 361.074,389.5C361.074,402.9 349.988,413.779 336.332,413.779C322.676,413.779 311.59,402.9 311.59,389.5C311.59,376.099 322.676,365.22 336.332,365.22ZM456.474,365.15C470.13,365.15 481.217,376.03 481.217,389.43C481.217,402.83 470.13,413.709 456.474,413.709C442.819,413.709 431.732,402.83 431.732,389.43C431.732,376.03 442.819,365.15 456.474,365.15Z" style="fill:rgb(71,71,71);"/>
                    </g>
                </g>
            </g>
        </g>
    </g>
</svg>
