<svg width="1064" height="670" viewBox="0 0 1064 670" fill="none" xmlns="http://www.w3.org/2000/svg">
<path d="M0 27.46C0 12.2943 12.2943 0 27.46 0H1036.54C1051.71 0 1064 12.2943 1064 27.46V642.541C1064 657.706 1051.71 670 1036.54 670H27.4591C12.2939 670 0 657.706 0 642.541V27.46Z" fill="white"/>
<path d="M676.343 179H388.514C381.592 179 376 184.592 376 191.514V479.343C376 486.265 381.592 491.857 388.514 491.857H676.343C683.265 491.857 688.857 486.265 688.857 479.343V191.514C688.857 184.592 683.265 179 676.343 179ZM532.859 337.814L457.773 400.776C455.739 402.497 452.65 401.05 452.65 398.391V373.871C452.65 372.971 453.08 372.072 453.784 371.485L496.724 335.428L453.784 299.372C453.425 299.088 453.135 298.725 452.939 298.311C452.742 297.898 452.643 297.444 452.65 296.986V272.466C452.65 269.807 455.739 268.36 457.773 270.08L532.859 333.004C534.384 334.255 534.384 336.563 532.859 337.814V337.814ZM612.207 398.391C612.207 400.112 610.877 401.52 609.274 401.52H536.926C535.322 401.52 533.993 400.112 533.993 398.391V379.62C533.993 377.899 535.322 376.491 536.926 376.491H609.274C610.877 376.491 612.207 377.899 612.207 379.62V398.391Z" fill="url(#paint0_linear_247_58)"/>
<defs>
<linearGradient id="paint0_linear_247_58" x1="413.872" y1="238.052" x2="639.911" y2="457.834" gradientUnits="userSpaceOnUse">
<stop offset="0.0300835" stop-color="#43B02A"/>
<stop offset="1" stop-color="#1EB59A"/>
</linearGradient>
</defs>
</svg>
