<svg width="1064" height="671" viewBox="0 0 1064 671" fill="none" xmlns="http://www.w3.org/2000/svg">
<path d="M0 117.203H1064V642.804C1064 657.969 1051.71 670.263 1036.54 670.263H27.4591C12.2939 670.263 0 657.969 0 642.804V117.203Z" fill="white"/>
<path d="M0 27.4591C0 12.2938 12.2939 0 27.4591 0H1036.54C1051.71 0 1064 12.2939 1064 27.4591V117.205H0V27.4591Z" fill="#DADADA"/>
<circle cx="53.1099" cy="58.601" r="20.1446" fill="#C24545"/>
<circle cx="104.385" cy="58.601" r="20.1446" fill="#F8C616"/>
<circle cx="155.664" cy="58.601" r="20.1446" fill="#2DB24A"/>
<path d="M648.285 250.421H412.896C407.236 250.421 402.662 254.994 402.662 260.655V496.043C402.662 501.704 407.236 506.278 412.896 506.278H648.285C653.946 506.278 658.519 501.704 658.519 496.043V260.655C658.519 254.994 653.946 250.421 648.285 250.421ZM530.942 380.3L469.537 431.791C467.874 433.199 465.347 432.015 465.347 429.84V409.788C465.347 409.052 465.699 408.317 466.275 407.837L501.391 378.349L466.275 348.862C465.981 348.63 465.744 348.333 465.583 347.995C465.422 347.656 465.342 347.285 465.347 346.911V326.858C465.347 324.683 467.874 323.5 469.537 324.907L530.942 376.366C532.19 377.39 532.19 379.277 530.942 380.3V380.3ZM595.834 429.84C595.834 431.248 594.747 432.399 593.435 432.399H534.269C532.957 432.399 531.87 431.248 531.87 429.84V414.489C531.87 413.082 532.957 411.93 534.269 411.93H593.435C594.747 411.93 595.834 413.082 595.834 414.489V429.84Z" fill="url(#paint0_linear_247_58)"/>
<defs>
<linearGradient id="paint0_linear_247_58" x1="433.634" y1="298.714" x2="618.491" y2="478.453" gradientUnits="userSpaceOnUse">
<stop offset="0.0300835" stop-color="#43B02A"/>
<stop offset="1" stop-color="#1EB59A"/>
</linearGradient>
</defs>
</svg>
