<svg width="1064" height="671" viewBox="0 0 1064 671" fill="none" xmlns="http://www.w3.org/2000/svg">
<path d="M0 117.571H1064V643.161C1064 658.332 1051.7 670.631 1036.53 670.631H27.4698C12.2986 670.631 0 658.332 0 643.161V117.571Z" fill="white"/>
<path d="M0 27.8373C0 12.6661 12.2987 0.367432 27.4699 0.367432H1036.53C1051.7 0.367432 1064 12.6661 1064 27.8373V117.572H0V27.8373Z" fill="#DADADA"/>
<circle cx="53.1094" cy="58.9686" r="20.1446" fill="#C24545"/>
<circle cx="104.385" cy="58.9686" r="20.1446" fill="#F8C616"/>
<circle cx="155.664" cy="58.9686" r="20.1446" fill="#2DB24A"/>
<path d="M283.605 424.685C278.597 435.773 276.202 440.73 269.771 450.528C260.785 464.211 248.098 481.286 232.414 481.403C218.462 481.521 214.861 472.301 195.928 472.451C176.994 472.544 173.049 481.571 159.081 481.428C143.397 481.286 131.388 465.903 122.394 452.245C97.2467 413.933 94.5921 369.031 110.134 345.139C121.13 328.198 138.531 318.25 154.869 318.25C171.509 318.25 181.968 327.395 195.727 327.395C209.075 327.395 217.206 318.225 236.45 318.225C251.004 318.225 266.396 326.155 277.391 339.839C241.416 359.551 247.261 410.935 283.605 424.685ZM221.846 302.934C228.846 293.948 234.155 281.27 232.229 268.34C220.807 269.119 207.45 276.413 199.646 285.859C192.578 294.459 186.716 307.238 189.002 319.598C201.463 320 214.359 312.572 221.846 302.934Z" fill="url(#paint0_linear_247_93)"/>
<path d="M753.673 276.714H848.945V371.945H753.673V276.714ZM859.38 276.714H954.652V371.945H859.38V276.714ZM753.673 382.421H848.945V477.693H753.673V382.421ZM859.38 382.421H954.652V477.693H859.38" fill="url(#paint1_linear_247_93)"/>
<path d="M595.775 432.92C594.823 431.014 593.87 429.109 593.87 427.204C593.87 423.393 591.965 420.535 589.107 417.677C588.154 416.725 586.249 415.772 585.296 415.772C591.012 398.625 582.438 381.477 572.912 369.093C565.291 357.661 553.859 349.088 554.812 333.845C554.812 315.745 556.717 282.403 523.375 285.261C489.08 287.166 498.606 322.414 497.654 334.798C497.654 345.277 492.89 355.756 485.269 364.33C483.364 366.235 481.459 369.093 480.506 370.998C470.98 382.43 466.217 397.672 466.217 411.962C464.311 413.867 462.406 415.772 461.453 417.677C460.501 418.63 459.548 419.583 459.548 420.535C458.595 421.488 456.69 422.441 454.785 423.393C450.974 424.346 448.116 426.251 446.211 430.062C445.259 432.92 444.306 436.73 445.259 440.541C446.211 442.446 446.211 444.351 445.259 447.209C443.353 451.02 443.353 455.783 445.259 460.546C448.116 464.357 452.88 465.309 459.548 466.262C464.311 466.262 470.027 468.167 474.79 470.073C479.553 472.93 485.269 474.836 490.985 474.836C493.843 474.836 497.654 473.883 500.512 472.93C503.369 471.025 505.275 469.12 506.227 466.262C510.038 466.262 515.754 464.357 522.422 464.357C528.138 464.357 533.854 466.262 541.475 465.309C541.475 466.262 541.475 467.215 542.428 468.167C544.333 472.93 549.096 476.741 554.812 477.694H556.717C564.338 476.741 571.959 472.93 576.722 467.215C580.533 463.404 585.296 460.546 590.059 458.641C595.775 455.783 599.586 453.878 600.538 449.115C601.491 442.446 599.586 438.636 595.775 432.92ZM530.043 310.982C535.759 311.935 540.522 316.698 539.57 322.414C539.57 325.272 538.617 328.13 536.712 330.987H535.759C533.854 330.035 532.901 330.035 531.949 329.082C532.901 328.13 532.901 326.224 533.854 324.319C533.854 320.508 531.949 317.651 530.043 317.651C527.185 317.651 525.28 320.508 525.28 324.319V325.272C524.327 324.319 522.422 324.319 521.47 323.366V322.414C520.517 317.651 524.327 311.935 530.043 310.982V310.982ZM527.185 330.035C528.138 330.987 530.043 331.94 530.996 331.94C531.949 331.94 533.854 332.893 534.806 333.845C536.712 334.798 538.617 335.751 538.617 338.609C538.617 341.467 535.759 344.324 530.043 346.23C528.138 347.182 527.185 347.182 526.233 348.135C523.375 350.04 520.517 350.993 516.706 350.993C513.848 350.993 510.991 349.088 509.085 347.182C508.133 346.23 507.18 345.277 505.275 344.324C504.322 343.372 502.417 341.467 501.464 338.609C501.464 337.656 502.417 336.703 503.369 335.751C506.227 333.845 507.18 332.893 508.133 331.94L509.085 330.987C510.991 328.13 514.801 326.224 518.612 326.224C521.47 327.177 524.327 328.13 527.185 330.035V330.035ZM507.18 312.887C510.991 312.887 513.848 316.698 514.801 323.366V325.272C513.848 325.272 511.943 326.224 510.991 327.177V325.272C510.991 322.414 509.085 319.556 507.18 320.508C505.275 320.508 504.322 323.366 504.322 326.224C504.322 328.13 505.275 329.082 506.227 330.035C506.227 330.035 505.275 330.987 504.322 330.987C502.417 329.082 500.512 326.224 500.512 323.366C500.512 317.651 503.369 312.887 507.18 312.887V312.887ZM497.654 466.262C490.985 469.12 482.411 468.167 476.696 464.357C470.98 461.499 466.217 460.546 459.548 460.546C454.785 459.594 450.022 459.594 449.069 457.688C448.116 455.783 448.116 452.925 450.022 448.162C450.974 445.304 450.974 442.446 450.022 439.588C449.069 436.73 449.069 434.825 450.022 431.967C450.974 429.109 452.88 428.156 455.738 427.204C458.595 426.251 460.501 425.299 462.406 423.393C463.359 422.441 464.311 421.488 465.264 419.583C468.122 415.772 470.027 413.867 472.885 413.867C478.601 414.82 483.364 423.393 487.175 431.967C489.08 434.825 490.985 438.636 493.843 441.493C497.654 446.257 502.417 452.925 502.417 456.736C502.417 461.499 500.512 464.357 497.654 466.262V466.262ZM544.333 445.304C544.333 446.257 544.333 446.257 543.38 447.209C531.949 455.783 516.706 456.736 504.322 450.067L498.606 441.493C507.18 440.541 505.275 429.109 487.175 417.677C468.122 405.293 481.459 382.43 488.127 371.951C489.08 370.998 489.08 371.951 485.269 379.572C482.411 385.288 476.696 399.577 484.317 410.056C484.317 402.435 486.222 394.814 489.08 387.193C495.748 374.809 500.512 360.519 503.369 346.23C504.322 347.182 504.322 347.182 505.275 347.182C506.227 348.135 507.18 349.088 508.133 349.088C510.038 351.946 513.848 352.898 516.706 352.898H517.659C521.47 352.898 525.28 351.946 528.138 349.088C529.091 348.135 530.043 347.182 531.949 347.182C534.806 346.23 537.664 344.324 540.522 341.467C544.333 353.851 548.143 365.282 553.859 375.761C557.67 383.383 560.528 391.004 562.433 399.577C565.291 399.577 569.101 400.53 571.959 402.435C579.58 406.246 582.438 409.104 581.486 413.867H579.58C579.58 411.009 577.675 408.151 571.007 405.293C564.338 402.435 558.622 402.435 556.717 409.104C555.764 409.104 554.812 410.056 553.859 410.056C546.238 413.867 546.238 424.346 545.285 434.825C546.238 438.635 545.285 441.493 544.333 445.304V445.304ZM588.154 451.02C582.438 452.925 577.675 456.736 573.865 461.499C570.054 467.215 563.386 471.025 555.764 470.073C551.954 470.073 548.143 467.215 547.191 463.404C546.238 457.688 546.238 451.972 549.096 446.257C550.049 442.446 551.001 439.588 551.954 435.778C552.907 424.346 552.907 417.677 557.67 414.82C557.67 419.583 560.528 422.441 564.338 424.346C569.101 424.346 573.865 423.393 577.675 419.583H579.58C582.438 419.583 584.344 419.583 586.249 421.488C588.154 423.393 589.107 426.251 589.107 428.156C589.107 431.014 591.012 433.872 591.965 436.73C596.728 441.493 596.728 444.351 596.728 445.304C595.775 447.209 591.965 449.115 588.154 451.02V451.02ZM502.417 336.703C501.464 336.703 501.464 336.703 501.464 337.656C501.464 337.656 501.464 338.609 502.417 338.609C503.369 338.609 503.369 339.561 503.369 339.561C506.227 343.372 510.991 345.277 516.706 346.23C521.47 345.277 526.233 344.324 530.996 340.514L536.712 337.656C537.664 337.656 537.664 336.703 537.664 336.703C537.664 335.751 537.664 335.751 536.712 335.751C534.806 336.703 531.949 337.656 530.043 338.609C526.233 341.467 521.47 343.372 516.706 343.372C511.943 343.372 508.133 340.514 505.275 337.656C504.322 337.656 503.369 336.703 502.417 336.703Z" fill="url(#paint2_linear_247_93)"/>
<defs>
<linearGradient id="paint0_linear_247_93" x1="138.173" y1="331.146" x2="251.224" y2="448.384" gradientUnits="userSpaceOnUse">
<stop stop-color="#43B02A"/>
<stop offset="1" stop-color="#1EB59A"/>
</linearGradient>
<linearGradient id="paint1_linear_247_93" x1="766.234" y1="301.837" x2="933.717" y2="456.758" gradientUnits="userSpaceOnUse">
<stop stop-color="#43B02A"/>
<stop offset="1" stop-color="#1EB59A"/>
</linearGradient>
<linearGradient id="paint2_linear_247_93" x1="477.326" y1="326.959" x2="573.629" y2="427.449" gradientUnits="userSpaceOnUse">
<stop stop-color="#43B02A"/>
<stop offset="1" stop-color="#1EB59A"/>
</linearGradient>
</defs>
</svg>
