<svg width="1064" height="671" viewBox="0 0 1064 671" fill="none" xmlns="http://www.w3.org/2000/svg">
<path d="M0 117.203H1064V642.794C1064 657.965 1051.7 670.264 1036.53 670.264H27.4698C12.2986 670.264 0 657.965 0 642.794V117.203Z" fill="white"/>
<path d="M0 27.4699C0 12.2987 12.2987 0 27.4699 0H1036.53C1051.7 0 1064 12.2987 1064 27.4699V117.205H0V27.4699Z" fill="#DADADA"/>
<circle cx="53.1094" cy="58.6009" r="20.1446" fill="#C24545"/>
<circle cx="104.385" cy="58.6009" r="20.1446" fill="#F8C616"/>
<circle cx="155.664" cy="58.6009" r="20.1446" fill="#2DB24A"/>
<path d="M581.401 436.782C591.894 436.782 600.409 445.297 600.409 455.789V477.534L600.322 478.707C596.955 501.809 576.21 512.91 541.399 512.91C506.718 512.91 485.636 501.94 481.085 479.109L480.933 477.512V455.789C480.933 445.297 489.448 436.782 499.94 436.782H581.401ZM586.767 371.613H652.001C662.493 371.613 671.009 380.128 671.009 390.62V412.365L670.922 413.538C667.555 436.64 646.809 447.741 611.998 447.741L610.174 447.719C608.499 441.766 605.02 436.479 600.215 432.587C595.41 428.694 589.516 426.388 583.346 425.985L581.401 425.92H571.387C577.063 421.344 581.64 415.553 584.783 408.974C587.926 402.395 589.554 395.196 589.548 387.905C589.548 382.192 588.57 376.718 586.767 371.613ZM429.341 371.613H494.575C492.772 376.718 491.794 382.192 491.794 387.905C491.794 402.351 498.072 415.352 508.043 424.291L509.955 425.92H499.94C486.233 425.92 474.676 435.152 471.157 447.752L470.799 447.741C436.118 447.741 415.036 436.771 410.485 413.94L410.333 412.343V390.62C410.333 380.128 418.848 371.613 429.341 371.613ZM540.671 349.89C550.753 349.89 560.422 353.895 567.552 361.024C574.681 368.153 578.686 377.823 578.686 387.905C578.686 397.987 574.681 407.656 567.552 414.786C560.422 421.915 550.753 425.92 540.671 425.92C530.589 425.92 520.919 421.915 513.79 414.786C506.661 407.656 502.656 397.987 502.656 387.905C502.656 377.823 506.661 368.153 513.79 361.024C520.919 353.895 530.589 349.89 540.671 349.89ZM611.271 284.721C621.353 284.721 631.022 288.726 638.151 295.855C645.281 302.984 649.286 312.654 649.286 322.736C649.286 332.818 645.281 342.487 638.151 349.617C631.022 356.746 621.353 360.751 611.271 360.751C601.188 360.751 591.519 356.746 584.39 349.617C577.261 342.487 573.255 332.818 573.255 322.736C573.255 312.654 577.261 302.984 584.39 295.855C591.519 288.726 601.188 284.721 611.271 284.721V284.721ZM470.071 284.721C480.153 284.721 489.823 288.726 496.952 295.855C504.081 302.984 508.086 312.654 508.086 322.736C508.086 332.818 504.081 342.487 496.952 349.617C489.823 356.746 480.153 360.751 470.071 360.751C459.989 360.751 450.32 356.746 443.19 349.617C436.061 342.487 432.056 332.818 432.056 322.736C432.056 312.654 436.061 302.984 443.19 295.855C450.32 288.726 459.989 284.721 470.071 284.721V284.721Z" fill="url(#paint0_linear_247_94)"/>
<defs>
<linearGradient id="paint0_linear_247_94" x1="442.917" y1="284.721" x2="589.548" y2="453.074" gradientUnits="userSpaceOnUse">
<stop stop-color="#43B02A"/>
<stop offset="1" stop-color="#1EB59A"/>
</linearGradient>
</defs>
</svg>
