<svg width="1064" height="671" viewBox="0 0 1064 671" fill="none" xmlns="http://www.w3.org/2000/svg">
<path d="M0 27.46C0 12.2943 12.2943 0 27.46 0H1036.54C1051.71 0 1064 12.2943 1064 27.46V643.53C1064 658.701 1051.7 671 1036.53 671H27.4698C12.2986 671 0 658.701 0 643.53V27.46Z" fill="white"/>
<path d="M266.115 385.345C261.107 396.433 258.712 401.39 252.281 411.188C243.296 424.871 230.609 441.946 214.924 442.063C200.973 442.181 197.372 432.961 178.438 433.111C159.504 433.203 155.56 442.231 141.592 442.088C125.907 441.946 113.898 426.563 104.904 412.905C79.7569 374.593 77.1023 329.691 92.6447 305.799C103.64 288.858 121.041 278.91 137.379 278.91C154.019 278.91 164.478 288.054 178.237 288.054C191.585 288.054 199.716 278.885 218.96 278.885C233.515 278.885 248.906 286.815 259.901 300.498C223.926 320.211 229.771 371.595 266.115 385.345ZM204.356 263.594C211.357 254.608 216.666 241.93 214.74 229C203.317 229.779 189.961 237.073 182.156 246.519C175.088 255.119 169.226 267.898 171.512 280.258C183.973 280.66 196.869 273.232 204.356 263.594Z" fill="url(#paint0_linear_247_93)"/>
<path d="M757 236H852.273V331.231H757V236ZM862.707 236H957.979V331.231H862.707V236ZM757 341.707H852.273V436.979H757V341.707ZM862.707 341.707H957.979V436.979H862.707" fill="url(#paint1_linear_247_93)"/>
<path d="M604.946 405.831C603.993 403.926 603.04 402.021 603.04 400.115C603.04 396.305 601.135 393.447 598.277 390.589C597.325 389.636 595.419 388.684 594.467 388.684C600.182 371.536 591.609 354.389 582.082 342.005C574.461 330.573 563.03 321.999 563.982 306.757C563.982 288.657 565.888 255.315 532.545 258.173C498.25 260.078 507.777 295.325 506.824 307.71C506.824 318.189 502.061 328.668 494.44 337.241C492.534 339.147 490.629 342.005 489.677 343.91C480.15 355.342 475.387 370.584 475.387 384.873C473.482 386.779 471.576 388.684 470.624 390.589C469.671 391.542 468.719 392.494 468.719 393.447C467.766 394.4 465.861 395.352 463.955 396.305C460.145 397.258 457.287 399.163 455.382 402.973C454.429 405.831 453.476 409.642 454.429 413.452C455.382 415.358 455.382 417.263 454.429 420.121C452.524 423.931 452.524 428.695 454.429 433.458C457.287 437.268 462.05 438.221 468.719 439.174C473.482 439.174 479.198 441.079 483.961 442.984C488.724 445.842 494.44 447.747 500.156 447.747C503.013 447.747 506.824 446.795 509.682 445.842C512.54 443.937 514.445 442.032 515.398 439.174C519.208 439.174 524.924 437.268 531.593 437.268C537.308 437.268 543.024 439.174 550.645 438.221C550.645 439.174 550.645 440.126 551.598 441.079C553.503 445.842 558.266 449.653 563.982 450.605H565.888C573.509 449.653 581.13 445.842 585.893 440.126C589.703 436.316 594.467 433.458 599.23 431.553C604.946 428.695 608.756 426.789 609.709 422.026C610.661 415.358 608.756 411.547 604.946 405.831ZM539.214 283.894C544.93 284.846 549.693 289.61 548.74 295.325C548.74 298.183 547.787 301.041 545.882 303.899H544.929C543.024 302.946 542.072 302.946 541.119 301.994C542.072 301.041 542.072 299.136 543.024 297.231C543.024 293.42 541.119 290.562 539.214 290.562C536.356 290.562 534.45 293.42 534.45 297.231V298.183C533.498 297.231 531.593 297.231 530.64 296.278V295.325C529.687 290.562 533.498 284.846 539.214 283.894ZM536.356 302.946C537.308 303.899 539.214 304.852 540.166 304.852C541.119 304.852 543.024 305.804 543.977 306.757C545.882 307.71 547.787 308.662 547.787 311.52C547.787 314.378 544.93 317.236 539.214 319.141C537.308 320.094 536.356 320.094 535.403 321.047C532.545 322.952 529.687 323.905 525.877 323.905C523.019 323.905 520.161 321.999 518.256 320.094C517.303 319.141 516.35 318.189 514.445 317.236C513.492 316.283 511.587 314.378 510.635 311.52C510.635 310.568 511.587 309.615 512.54 308.662C515.398 306.757 516.35 305.804 517.303 304.852L518.256 303.899C520.161 301.041 523.971 299.136 527.782 299.136C530.64 300.089 533.498 301.041 536.356 302.946ZM516.35 285.799C520.161 285.799 523.019 289.61 523.971 296.278V298.183C523.019 298.183 521.114 299.136 520.161 300.089V298.183C520.161 295.325 518.256 292.467 516.35 293.42C514.445 293.42 513.492 296.278 513.492 299.136C513.492 301.041 514.445 301.994 515.398 302.946C515.398 302.946 514.445 303.899 513.492 303.899C511.587 301.994 509.682 299.136 509.682 296.278C509.682 290.562 512.54 285.799 516.35 285.799ZM506.824 439.174C500.156 442.032 491.582 441.079 485.866 437.268C480.15 434.41 475.387 433.458 468.719 433.458C463.955 432.505 459.192 432.505 458.24 430.6C457.287 428.695 457.287 425.837 459.192 421.074C460.145 418.216 460.145 415.358 459.192 412.5C458.24 409.642 458.24 407.737 459.192 404.879C460.145 402.021 462.05 401.068 464.908 400.115C467.766 399.163 469.671 398.21 471.576 396.305C472.529 395.352 473.482 394.4 474.434 392.494C477.292 388.684 479.198 386.779 482.055 386.779C487.771 387.731 492.534 396.305 496.345 404.879C498.25 407.737 500.156 411.547 503.013 414.405C506.824 419.168 511.587 425.837 511.587 429.647C511.587 434.41 509.682 437.268 506.824 439.174ZM553.503 418.216C553.503 419.168 553.503 419.168 552.551 420.121C541.119 428.695 525.877 429.647 513.492 422.979L507.777 414.405C516.35 413.452 514.445 402.021 496.345 390.589C477.292 378.205 490.629 355.342 497.298 344.863C498.25 343.91 498.25 344.863 494.44 352.484C491.582 358.199 485.866 372.489 493.487 382.968C493.487 375.347 495.392 367.726 498.25 360.105C504.919 347.72 509.682 333.431 512.54 319.141C513.492 320.094 513.492 320.094 514.445 320.094C515.398 321.047 516.35 321.999 517.303 321.999C519.208 324.857 523.019 325.81 525.877 325.81H526.829C530.64 325.81 534.45 324.857 537.308 321.999C538.261 321.047 539.214 320.094 541.119 320.094C543.977 319.141 546.835 317.236 549.693 314.378C553.503 326.762 557.314 338.194 563.03 348.673C566.84 356.294 569.698 363.915 571.603 372.489C574.461 372.489 578.272 373.442 581.13 375.347C588.751 379.157 591.609 382.015 590.656 386.779H588.751C588.751 383.921 586.846 381.063 580.177 378.205C573.509 375.347 567.793 375.347 565.888 382.015C564.935 382.015 563.982 382.968 563.03 382.968C555.409 386.779 555.409 397.258 554.456 407.737C555.409 411.547 554.456 414.405 553.503 418.216ZM597.325 423.931C591.609 425.837 586.846 429.647 583.035 434.41C579.224 440.126 572.556 443.937 564.935 442.984C561.124 442.984 557.314 440.126 556.361 436.316C555.409 430.6 555.409 424.884 558.266 419.168C559.219 415.358 560.172 412.5 561.124 408.689C562.077 397.258 562.077 390.589 566.84 387.731C566.84 392.494 569.698 395.352 573.509 397.258C578.272 397.258 583.035 396.305 586.846 392.494H588.751C591.609 392.494 593.514 392.494 595.419 394.4C597.325 396.305 598.277 399.163 598.277 401.068C598.277 403.926 600.182 406.784 601.135 409.642C605.898 414.405 605.898 417.263 605.898 418.216C604.946 420.121 601.135 422.026 597.325 423.931ZM511.587 309.615C510.635 309.615 510.635 309.615 510.635 310.568C510.635 310.568 510.635 311.52 511.587 311.52C512.54 311.52 512.54 312.473 512.54 312.473C515.398 316.283 520.161 318.189 525.877 319.141C530.64 318.189 535.403 317.236 540.166 313.425L545.882 310.568C546.835 310.568 546.835 309.615 546.835 309.615C546.835 308.662 546.835 308.662 545.882 308.662C543.977 309.615 541.119 310.568 539.214 311.52C535.403 314.378 530.64 316.283 525.877 316.283C521.114 316.283 517.303 313.425 514.445 310.568C513.492 310.568 512.54 309.615 511.587 309.615Z" fill="url(#paint2_linear_247_93)"/>
<defs>
<linearGradient id="paint0_linear_247_93" x1="120.684" y1="291.806" x2="233.735" y2="409.044" gradientUnits="userSpaceOnUse">
<stop stop-color="#43B02A"/>
<stop offset="1" stop-color="#1EB59A"/>
</linearGradient>
<linearGradient id="paint1_linear_247_93" x1="769.561" y1="261.122" x2="937.044" y2="416.044" gradientUnits="userSpaceOnUse">
<stop stop-color="#43B02A"/>
<stop offset="1" stop-color="#1EB59A"/>
</linearGradient>
<linearGradient id="paint2_linear_247_93" x1="486.497" y1="299.871" x2="582.799" y2="400.36" gradientUnits="userSpaceOnUse">
<stop stop-color="#43B02A"/>
<stop offset="1" stop-color="#1EB59A"/>
</linearGradient>
</defs>
</svg>
