<svg width="1064" height="670" viewBox="0 0 1064 670" fill="none" xmlns="http://www.w3.org/2000/svg">
<path d="M0 27.46C0 12.2943 12.2943 0 27.46 0H1036.54C1051.71 0 1064 12.2943 1064 27.46V642.53C1064 657.701 1051.7 670 1036.53 670H27.4698C12.2986 670 0 657.701 0 642.53V27.46Z" fill="white"/>
<path d="M582.909 382.252C595.967 382.252 606.565 392.85 606.565 405.909V432.972L606.457 434.432C602.267 463.185 576.447 477 533.122 477C489.959 477 463.72 463.347 458.056 434.932L457.867 432.945V405.909C457.867 392.85 468.465 382.252 481.524 382.252H582.909ZM589.587 301.144H670.776C683.834 301.144 694.432 311.742 694.432 324.801V351.864L694.324 353.324C690.134 382.076 664.314 395.892 620.989 395.892L618.718 395.865C616.634 388.456 612.304 381.876 606.324 377.032C600.344 372.187 593.008 369.316 585.329 368.815L582.909 368.734H570.445C577.509 363.038 583.206 355.831 587.118 347.644C591.029 339.456 593.055 330.495 593.047 321.421C593.047 314.311 591.831 307.498 589.587 301.144ZM393.657 301.144H474.846C472.602 307.498 471.385 314.311 471.385 321.421C471.385 339.4 479.199 355.581 491.608 366.707L493.987 368.734H481.524C464.464 368.734 450.081 380.225 445.701 395.905L445.255 395.892C402.092 395.892 375.853 382.239 370.189 353.824L370 351.837V324.801C370 311.742 380.598 301.144 393.657 301.144ZM532.216 274.108C544.764 274.108 556.799 279.093 565.672 287.966C574.545 296.839 579.529 308.873 579.529 321.421C579.529 333.969 574.545 346.004 565.672 354.877C556.799 363.749 544.764 368.734 532.216 368.734C519.668 368.734 507.634 363.749 498.761 354.877C489.888 346.004 484.903 333.969 484.903 321.421C484.903 308.873 489.888 296.839 498.761 287.966C507.634 279.093 519.668 274.108 532.216 274.108ZM620.083 193C632.632 193 644.666 197.985 653.539 206.858C662.412 215.731 667.396 227.765 667.396 240.313C667.396 252.861 662.412 264.896 653.539 273.768C644.666 282.641 632.632 287.626 620.083 287.626C607.535 287.626 595.501 282.641 586.628 273.768C577.755 264.896 572.77 252.861 572.77 240.313C572.77 227.765 577.755 215.731 586.628 206.858C595.501 197.985 607.535 193 620.083 193V193ZM444.349 193C456.897 193 468.932 197.985 477.804 206.858C486.677 215.731 491.662 227.765 491.662 240.313C491.662 252.861 486.677 264.896 477.804 273.768C468.932 282.641 456.897 287.626 444.349 287.626C431.801 287.626 419.767 282.641 410.894 273.768C402.021 264.896 397.036 252.861 397.036 240.313C397.036 227.765 402.021 215.731 410.894 206.858C419.767 197.985 431.801 193 444.349 193V193Z" fill="url(#paint0_linear_247_94)"/>
<defs>
<linearGradient id="paint0_linear_247_94" x1="410.554" y1="193" x2="593.047" y2="402.529" gradientUnits="userSpaceOnUse">
<stop stop-color="#43B02A"/>
<stop offset="1" stop-color="#1EB59A"/>
</linearGradient>
</defs>
</svg>
