<?xml version="1.0" encoding="UTF-8" standalone="no"?>
<!DOCTYPE svg PUBLIC "-//W3C//DTD SVG 1.1//EN" "http://www.w3.org/Graphics/SVG/1.1/DTD/svg11.dtd">
<svg width="100%" height="100%" viewBox="0 0 1025 1025" version="1.1" xmlns="http://www.w3.org/2000/svg" xmlns:xlink="http://www.w3.org/1999/xlink" xml:space="preserve" xmlns:serif="http://www.serif.com/" style="fill-rule:evenodd;clip-rule:evenodd;">
    <g transform="matrix(1,0,0,1,-1635,-1443)">
        <g id="circle" transform="matrix(1,0,0,1,1635.76,1443.34)">
            <rect x="0" y="0" width="1024" height="1024" style="fill:none;"/>
            <clipPath id="_clip1">
                <rect x="0" y="0" width="1024" height="1024"/>
            </clipPath>
            <g clip-path="url(#_clip1)">
                <g id="circle1" serif:id="circle">
                    <g transform="matrix(0.207214,-2.01917e-17,2.2003e-17,0.207214,85.7247,103.56)">
                        <g id="solid">
                            <g id="g702">
                                <path id="path21" d="M1016.58,2097.5C942.652,2079.77 793.666,2033.76 632.987,1932.3C807.621,1832.72 962.265,1815.75 1018.84,1811.6C1027.89,1745.97 1043.36,1685.24 1060.71,1624.14C1004.51,1580.01 895.882,1492.13 796.683,1360.49C957.739,1348.04 1096.54,1370.67 1165.94,1384.25C1201.02,1323.15 1241.38,1261.29 1293.81,1204.71C1263.63,1152.29 1211.2,1051.96 1177.26,907.497C1307.39,964.828 1398.66,1028.57 1446.19,1067.8C1511.82,1019.9 1583.86,985.196 1653.64,950.495C1653.64,889.392 1656.28,782.65 1683.06,651.768C1773.96,748.326 1829.78,836.587 1851.28,884.866C1938.41,867.893 2030.06,863.366 2125.87,868.27C2143.6,820.368 2178.67,737.388 2240.15,637.058C2283.15,750.967 2300.12,842.999 2308.42,890.901C2403.85,913.154 2498.14,942.574 2584.9,986.705C2724.83,869.401 2852.7,819.236 3005.08,780.387C3005.83,588.025 2971.88,393.399 2872.68,204.809C2772.73,156.153 2673.53,127.11 2564.91,100.33C2451.38,161.056 2359.72,230.457 2281.27,304.385C2225.07,216.502 2151.52,124.47 2060.62,41.113C2017.24,41.113 1934.64,36.209 1773.58,61.48C1694.75,161.81 1637.8,262.141 1593.67,362.471C1498.24,300.613 1380.94,247.808 1246.28,211.976C1167.83,246.676 1093.52,285.526 1019.6,328.902C992.817,455.634 983.765,573.692 987.537,683.074C874.382,660.82 744.255,651.391 604.698,667.987C556.419,720.038 508.14,774.729 464.01,835.832C471.931,993.117 510.78,1131.16 566.98,1249.22C436.476,1279.02 301.068,1335.22 174.712,1422.35C156.985,1478.92 148.687,1538.14 135.486,1595.1C213.185,1730.88 312.006,1848.56 411.959,1932.3C311.629,2014.9 216.202,2121.64 124.17,2274.02C132.468,2339.65 141.143,2401.89 158.494,2463.37L160.757,2463.37C266.367,2245.36 389.328,2101.27 511.535,2005.85C758.588,2177.46 1009.79,2226.87 1044.87,2231.4C1041.85,2219.71 1023.75,2159.36 1019.97,2106.93L1017.33,2097.12L1016.58,2097.5ZM2681.45,250.071C2767.83,381.707 2797.63,543.517 2805.92,635.549C2727.47,665.724 2605.26,721.924 2487.58,817.728C2470.61,734.748 2440.81,612.164 2376.32,471.853C2455.15,393.399 2555.48,315.323 2681.83,250.448L2681.45,250.071ZM1920.68,158.793C2024.78,246.676 2102.48,351.91 2158.68,448.468C2066.65,566.148 2009.7,679.302 1978.77,758.133C1935.77,679.302 1857.69,574.069 1740.77,468.458C1780.37,368.128 1837.33,259.123 1920.68,158.793ZM1175.75,369.637C1327.75,400.943 1445.06,458.274 1544.63,528.807C1500.5,681.565 1491.07,816.973 1490.7,904.479C1412.62,847.148 1299.84,776.615 1152.37,727.959C1139.92,623.102 1144.82,500.519 1175.75,369.637ZM1012.43,849.788C1042.23,1020.27 1100.31,1150.02 1143.31,1233.38C1043.36,1215.28 888.715,1203.21 718.984,1224.33C662.784,1114.57 620.163,979.161 612.242,826.026C760.097,809.43 895.127,823.008 1012.43,849.788ZM247.885,1545.69C374.618,1454.41 513.798,1406.88 640.153,1381.24C730.677,1526.07 843.454,1631.31 921.53,1697.31C821.577,1714.29 673.345,1753.14 516.438,1852.71C421.011,1778.03 325.962,1676.94 248.263,1545.31L247.885,1545.69Z" style="fill:white;stroke:rgb(45,178,74);stroke-width:9.43px;"/>
                                <g id="g23">
                                    <path id="path25" d="M1851.66,884.866C1825.63,836.964 1773.2,740.783 1681.55,649.128C1651,780.01 1651,893.541 1655.52,950.495C1651,950.495 1738.5,906.742 1851.66,884.866Z" style="fill:rgb(67,176,42);stroke:rgb(67,176,42);stroke-width:9.43px;"/>
                                    <path id="path35" d="M1445.81,1068.18C1397.91,1028.95 1306.25,959.17 1171.22,902.216C1205.92,1046.3 1262.88,1151.15 1293.43,1203.58C1293.43,1212.26 1354.53,1137.95 1446.19,1068.18L1445.81,1068.18Z" style="fill:rgb(67,176,42);stroke:rgb(67,176,42);stroke-width:9.43px;"/>
                                    <path id="path37" d="M1978.77,757.379C2009.32,678.925 2065.9,565.394 2157.55,447.336C2100.97,347.006 2022.52,246.676 1917.66,159.17C1834.68,264.026 1778.11,368.883 1738.88,473.362C1856.56,573.692 1930.87,678.548 1978.77,757.002L1978.77,757.379Z" style="fill:rgb(67,176,42);stroke:rgb(67,176,42);stroke-width:9.43px;"/>
                                    <path id="path39" d="M1167.08,1382.74C1121.06,1374.45 1070.52,1367.28 1016.2,1363.13C936.24,1356.72 863.067,1356.72 798.569,1360.87C836.664,1409.52 883.058,1463.08 939.257,1517.02C981.502,1557.38 1022.61,1592.08 1061.46,1621.88C1074.66,1583.03 1090.51,1541.91 1109.74,1498.16C1128.23,1456.29 1147.84,1417.82 1166.7,1382.74L1167.08,1382.74Z" style="fill:rgb(67,176,42);stroke:rgb(67,176,42);stroke-width:9.43px;"/>
                                    <path id="path43" d="M517.192,1853.84C674.099,1753.51 822.331,1709.76 922.662,1696.56C844.208,1630.93 730.677,1526.45 639.022,1382.37C508.14,1408.39 374.618,1458.56 248.263,1545.69C322.567,1676.57 416.862,1779.54 516.815,1853.84L517.192,1853.84Z" style="fill:rgb(67,176,42);stroke:rgb(67,176,42);stroke-width:9.43px;"/>
                                    <path id="path45" d="M1018.47,1814.62C957.362,1819.14 808.753,1827.44 634.118,1932.3C795.552,2032.63 944.161,2085.43 1018.47,2102.78C1005.26,2006.6 1005.26,1906.27 1018.47,1814.62Z" style="fill:rgb(67,176,42);stroke:rgb(67,176,42);stroke-width:9.43px;"/>
                                    <path id="path47" d="M1546.52,528.807C1450.71,463.178 1328.51,406.601 1175.75,371.523C1145.2,502.405 1141.05,624.611 1149.72,729.467C1297.96,777.369 1411.49,847.148 1489.94,904.102C1489.94,816.973 1503.14,681.565 1546.52,528.807Z" style="fill:rgb(67,176,42);stroke:rgb(67,176,42);stroke-width:9.43px;"/>
                                    <path id="path49" d="M2880.61,209.335C2880.61,209.335 3002.81,584.63 3006.96,776.615C2858.73,811.693 2727.85,863.744 2584.14,986.327C2662.6,1025.55 2732.37,1073.46 2798,1130.41C2867.78,1191.51 2933.03,1217.54 3024.69,1174.16C3077.12,1139.09 3369.06,838.095 3399.61,798.869C3469.39,724.564 3452.03,602.357 3377.73,545.78C3194.42,375.672 2880.61,209.712 2880.61,209.712L2880.61,209.335Z" style="fill:rgb(67,176,42);stroke:rgb(67,176,42);stroke-width:9.43px;"/>
                                    <path id="path51" d="M173.958,1424.61C304.84,1337.48 435.721,1280.53 566.603,1249.98C510.026,1132.3 470.799,996.888 462.124,839.604C335.768,1018.39 236.99,1211.86 175.887,1417.04L173.958,1424.61Z" style="fill:rgb(67,176,42);stroke:rgb(67,176,42);stroke-width:9.43px;"/>
                                    <path id="path55" d="M1145.95,1234.13C1102.2,1151.15 1045.62,1015.75 1015.07,850.165C897.39,824.14 766.509,810.938 613.751,832.815C622.426,985.573 666.179,1116.45 722.756,1229.99C897.013,1203.96 1045.62,1216.79 1145.95,1234.51L1145.95,1234.13Z" style="fill:rgb(67,176,42);stroke:rgb(67,176,42);stroke-width:9.43px;"/>
                                    <path id="path59" d="M603.944,668.741C661.275,661.575 729.168,657.426 805.736,660.443C874.382,663.461 935.486,671.759 987.914,681.565C998.852,563.885 1009.79,446.205 1021.11,328.147C954.722,366.62 879.663,416.407 801.587,479.774C721.624,545.026 656.372,609.901 604.321,668.364L603.944,668.741Z" style="fill:rgb(67,176,42);stroke:rgb(67,176,42);stroke-width:9.43px;stroke-linecap:round;"/>
                                    <path id="path679" d="M1244.4,213.484C1327,237.624 1418.28,271.947 1512.95,320.604C1541.24,334.936 1568.02,350.024 1593.29,364.734C1611.77,319.095 1635.53,268.175 1666.09,214.616C1699.65,155.398 1735.11,104.856 1767.92,62.612C1686.83,76.19 1597.06,95.804 1500.88,123.715C1405.45,151.249 1319.83,182.178 1244.4,213.484Z" style="fill:rgb(67,176,42);fill-rule:nonzero;stroke:rgb(67,176,42);stroke-width:9.43px;"/>
                                    <path id="path71" d="M412.336,1932.3C312.006,1849.32 211.676,1740.31 133.222,1604.9C89.47,1827.44 89.47,2063.18 124.547,2281.57C207.527,2128.81 307.857,2019.8 412.336,1932.3Z" style="fill:rgb(67,176,42);stroke:rgb(67,176,42);stroke-width:9.43px;"/>
                                    <path id="path75" d="M3343.03,3058.56C3068.44,2796.79 3011.49,2626.31 2780.65,2805.47C2148.5,3302.97 1236.85,3006.13 1044.87,2233.66C1010.17,2229.14 765.754,2181.24 517.192,2011.13C394.986,2107.31 268.63,2255.54 163.774,2469.4L159.248,2469.4C556.042,3970.96 2487.96,4320.23 3381.88,3381.8C3530.11,3224.52 3395.08,3115.51 3342.65,3058.93L3343.03,3058.56Z" style="fill:rgb(67,176,42);stroke:rgb(67,176,42);stroke-width:9.43px;"/>
                                    <path id="path79" d="M2679.95,248.185C2553.59,309.288 2453.26,387.742 2374.81,470.721C2440.06,610.278 2470.61,737.011 2488.34,815.465C2610.55,719.283 2732.37,662.706 2806.68,632.155C2798,545.026 2767.45,383.216 2680.32,248.185L2679.95,248.185Z" style="fill:rgb(67,176,42);stroke:rgb(67,176,42);stroke-width:9.43px;"/>
                                    <path id="path83" d="M2239.78,631.778C2207.72,680.434 2175.66,738.897 2148.12,807.167C2139.82,828.289 2132.28,848.656 2125.87,868.27C2156.04,869.779 2188.48,872.796 2222.43,876.945C2253.36,880.717 2282.78,885.62 2309.93,891.278C2305.03,858.086 2298.62,821.877 2289.19,783.404C2274.85,726.073 2257.5,675.153 2239.4,631.778L2239.78,631.778Z" style="fill:rgb(67,176,42);stroke:rgb(67,176,42);stroke-width:9.43px;"/>
                                    <path id="path87" d="M2280.51,304.762C2319.74,267.798 2367.26,227.44 2423.09,187.836C2472.87,152.381 2520.4,123.715 2564.15,100.707C2491.73,83.357 2409.51,67.515 2318.61,56.577C2223.56,45.262 2136.43,41.49 2059.11,42.244C2150.38,125.601 2224.31,217.256 2280.51,304.762Z" style="fill:rgb(67,176,42);stroke:rgb(67,176,42);stroke-width:9.43px;"/>
                                </g>
                                <g id="use111">
                                    <path id="SVGID" d="M860.804,2452.43C1000.36,2822.82 1488.06,3314.66 2088.9,3314.66C2420.07,3314.66 2720.3,3196.98 2955.66,2996.7C2973.01,2988.03 3134.07,3170.96 3199.7,3240.74C3212.9,3258.09 3212.9,3262.61 3212.9,3262.61C2420.07,3955.12 1074.29,3855.16 438.362,2657.24C490.79,2482.98 564.717,2378.5 564.717,2378.5C734.448,2448.28 860.804,2452.43 860.804,2452.43Z" style="fill:white;fill-rule:nonzero;stroke:rgb(45,178,74);stroke-width:9.43px;"/>
                                </g>
                            </g>
                        </g>
                    </g>
                    <g transform="matrix(1.20819,0,0,1.01678,-72.9961,-33.9357)">
                        <ellipse cx="484.192" cy="536.926" rx="423.774" ry="503.55" style="fill:none;"/>
                    </g>
                </g>
            </g>
        </g>
    </g>
</svg>
